<svg width="214" height="214" viewBox="0 0 214 214" fill="none" xmlns="http://www.w3.org/2000/svg">
<rect width="214" height="214" rx="107" fill="black"/>
<path fill-rule="evenodd" clip-rule="evenodd" d="M171.36 46.2865C171.658 53.6973 171.529 62.5532 171.529 70.4329C171.529 71.7529 171.571 73.1847 171.529 74.5263C171.488 75.8179 171.702 77.2514 171.444 78.286C171.193 79.3005 169.491 80.3969 168.68 81.1261C167.624 82.0756 166.794 82.9884 165.748 83.7994C160.012 89.2461 154.106 94.5243 148.323 99.9243C141.419 106.04 134.791 112.456 127.881 118.639C126.927 119.493 126.1 120.683 124.78 121.062C124.392 110.658 125.021 99.6206 124.529 89.4798C121.131 88.9942 117.686 89.3062 114.224 89.146C110.72 88.9825 107.196 89.3396 103.667 89.2295C82.5838 88.572 61.2564 89.7801 41.0016 88.8957C40.9631 88.2699 41.6357 87.8911 42.0072 87.5591C44.9605 84.9108 48.123 82.1858 51.1399 79.4557C52.8684 77.8905 54.3843 76.1333 56.1664 74.6098C64.9075 67.1355 73.2771 58.8186 82.0534 51.2994C82.8499 50.5835 83.8806 49.6173 84.985 48.6261C85.9872 47.7283 87.3643 46.1914 88.4202 46.0362C89.2116 45.9194 90.0901 46.123 91.0171 46.1196C117.839 46.0128 145.142 46.1664 171.36 46.2865Z" fill="#EBE3D5"/>
<path fill-rule="evenodd" clip-rule="evenodd" d="M89.0076 92.5737C89.5414 92.9041 89.4025 93.7468 89.4259 94.2441C89.6301 98.5627 89.3423 103.671 89.3423 108.28C89.3423 113.725 89.2051 119.227 89.5096 124.238C92.8795 124.515 96.3666 124.488 99.8152 124.488C124.606 124.491 149.192 124.395 173.372 124.655C173.238 125.369 172.57 125.82 172.114 126.242C171.618 126.699 171.016 127.038 170.608 127.579C162.931 134.192 156.039 141.109 148.323 147.797C141.955 153.315 135.354 159.558 128.886 165.509C128.057 166.271 126.73 167.635 125.955 167.848C124.762 168.177 122.545 167.873 120.845 167.848C116.026 167.775 110.256 167.566 105.263 167.765C98.8681 168.018 91.5778 167.64 84.9065 167.848C77.8637 168.068 70.7339 167.848 63.7949 167.848C56.7304 167.846 49.8014 168.028 43.1017 167.598C42.6549 165.053 42.8507 162.351 42.8507 159.661C42.8507 152.84 42.8507 146.332 42.8507 139.358C42.8507 137.985 42.6716 136.479 42.9343 135.43C43.1703 134.492 44.6946 133.352 45.6149 132.506C52.3682 126.292 58.8521 120.028 65.6372 113.875C73.6136 106.641 81.1399 99.6758 88.6746 92.7372C88.7282 92.6287 88.852 92.5854 89.0076 92.5737Z" fill="#EBE3D5"/>
</svg>
